<svg xmlns="http://www.w3.org/2000/svg" width="251" height="224" viewBox="0 0 251 224" fill="none">
  <path d="M221.349 60.8186H50.377V183.707H221.349V60.8186Z" fill="#2557A4"/>
  <path d="M216.762 179.688H54.9697V64.832H216.727L216.762 179.688Z" fill="white"/>
  <g style="mix-blend-mode:multiply">
    <path d="M191.904 80.0747H84.4675V90.358H191.904V80.0747Z" fill="#B2B2B2"/>
  </g>
  <g style="mix-blend-mode:multiply">
    <path d="M135.86 122.26H64.9399V125.809H135.86V122.26Z" fill="#DADADA"/>
    <path d="M145.7 144.766H64.9399V148.315H145.7V144.766Z" fill="#DADADA"/>
    <path d="M145.7 151.729H64.9399V155.278H145.7V151.729Z" fill="#DADADA"/>
    <path d="M206.786 116.36H64.9399V119.909H206.786V116.36Z" fill="#DADADA"/>
    <path d="M206.786 110.466H64.9399V114.016H206.786V110.466Z" fill="#DADADA"/>
    <path d="M206.786 104.573H64.9399V108.122H206.786V104.573Z" fill="#DADADA"/>
  </g>
  <path d="M169.791 174.246L165.434 167.53L157.483 168.646L167.571 146.664L179.885 152.264L169.791 174.246Z" fill="#D11039"/>
  <path d="M168.799 172.76L165.434 167.53L159.266 168.417L168.959 147.292L178.498 151.635L168.799 172.76Z" fill="white"/>
  <path d="M168.067 171.608L165.434 167.53L160.617 168.217L170.003 147.768L177.453 151.159L168.067 171.608Z" fill="#D11039"/>
  <path d="M187.288 174.246L191.644 167.53L199.596 168.646L189.507 146.664L177.199 152.264L187.288 174.246Z" fill="#D11039"/>
  <path d="M188.279 172.76L191.644 167.53L197.819 168.417L188.12 147.292L178.581 151.635L188.279 172.76Z" fill="white"/>
  <path d="M189.011 171.608L191.644 167.53L196.467 168.217L187.075 147.768L179.625 151.159L189.011 171.608Z" fill="#D11039"/>
  <path d="M197.052 144.407L193.474 147.986L195.145 152.746L190.357 154.414L189.791 159.427L184.749 158.874L182.046 163.146L177.754 160.455L173.457 163.146L170.753 158.874L165.718 159.427L165.145 154.414L160.358 152.746L162.028 147.986L158.451 144.407L162.028 140.835L160.358 136.069L165.145 134.4L165.718 129.388L170.753 129.94L173.457 125.674L177.754 128.354L182.046 125.674L184.749 129.94L189.791 129.388L190.357 134.4L195.145 136.069L193.474 140.835L197.052 144.407Z" fill="#F6B30D"/>
  <path d="M195.835 144.407L192.482 147.757L194.047 152.222L189.56 153.78L189.029 158.481L184.307 157.958L181.774 161.959L177.754 159.444L173.728 161.959L171.196 157.958L166.479 158.481L165.942 153.78L161.456 152.217L163.02 147.757L159.667 144.407L163.02 141.058L161.456 136.592L165.942 135.035L166.479 130.334L171.196 130.857L173.728 126.855L177.754 129.37L181.774 126.855L184.307 130.857L189.029 130.334L189.56 135.035L194.047 136.592L192.482 141.058L195.835 144.407Z" fill="#FAC700"/>
  <path d="M189.076 144.407C189.077 146.638 188.414 148.819 187.17 150.674C185.925 152.53 184.156 153.976 182.086 154.83C180.016 155.684 177.738 155.908 175.54 155.473C173.342 155.038 171.323 153.964 169.738 152.387C168.153 150.809 167.074 148.8 166.638 146.612C166.201 144.424 166.425 142.156 167.284 140.095C168.142 138.034 169.595 136.273 171.458 135.035C173.322 133.796 175.513 133.136 177.754 133.137C180.757 133.137 183.637 134.324 185.76 136.438C187.883 138.551 189.076 141.418 189.076 144.407Z" stroke="#D11039" stroke-width="3.05" stroke-miterlimit="10"/>
  <path d="M93.9301 58.8323L75.1582 80.3626L48.1751 89.9349L30.0703 63.5391L75.8253 32.4365L93.9301 58.8323Z" fill="#272726"/>
  <g style="mix-blend-mode:multiply">
    <path d="M93.9301 58.8323L75.1582 80.3627L52.9448 47.9908L75.8253 32.4365L93.9301 58.8323Z" fill="#DADADA"/>
  </g>
  <g style="mix-blend-mode:multiply">
    <path d="M36.2804 72.5943L64.568 64.9318L82.0353 41.4917L75.8253 32.4365L30.0703 63.5391L36.2804 72.5943Z" fill="#DADADA"/>
  </g>
  <path d="M96.4685 19.7146L63.7121 63.6802L10.6491 78.0475L9.46851 76.3316L43.4055 34.0819L95.2878 17.9988L96.4685 19.7146Z" fill="#272726"/>
  <path d="M95.2878 17.9988L62.5374 61.9644L9.46851 76.3316L42.2248 32.3602L95.2878 17.9988Z" fill="#2E2D2C"/>
  <g style="mix-blend-mode:multiply">
    <path d="M57.5846 43.6248C58.352 44.7472 56.646 47.2387 53.7712 49.1896C50.8964 51.1405 47.9448 51.8221 47.1774 50.6998C46.41 49.5774 48.116 47.0918 50.9908 45.1409C53.8656 43.19 56.8172 42.5084 57.5846 43.6248Z" fill="#706F6F"/>
  </g>
  <g style="mix-blend-mode:multiply">
    <path d="M11.0032 75.327L12.5262 77.5423L13.8426 77.1838L12.7977 75.6678L51.5162 49.3484L52.7735 47.7383L11.0032 75.327Z" fill="#DADADA"/>
  </g>
  <path d="M52.0475 46.6805L10.0764 75.2153L28.0986 101.482L29.1612 100.759L11.8651 75.5443L52.7736 47.7382C52.8399 47.69 52.8955 47.6286 52.9366 47.5578C52.9778 47.487 53.0036 47.4084 53.0125 47.3271C53.0214 47.2458 53.0131 47.1636 52.9883 47.0856C52.9634 47.0077 52.9224 46.9357 52.868 46.8744C52.4784 46.3103 52.0475 46.6805 52.0475 46.6805Z" fill="#FAC700"/>
  <g style="mix-blend-mode:multiply">
    <path d="M52.0475 46.6805L52.0948 46.7393C52.1482 46.8005 52.1883 46.872 52.2126 46.9494C52.2369 47.0267 52.2449 47.1082 52.236 47.1888C52.2272 47.2694 52.2016 47.3473 52.1611 47.4176C52.1205 47.4878 52.0658 47.549 52.0003 47.5972L11.0918 75.4033L28.3879 100.618L29.1612 100.747L11.8651 75.5443L52.7736 47.7382C52.84 47.69 52.8955 47.6286 52.9367 47.5578C52.9778 47.487 53.0037 47.4084 53.0125 47.3271C53.0214 47.2458 53.0132 47.1636 52.9883 47.0856C52.9634 47.0077 52.9225 46.9357 52.8681 46.8744C52.4785 46.3103 52.0475 46.6805 52.0475 46.6805Z" fill="#F2DEC1"/>
  </g>
  <path d="M32.1541 101.493C30.3832 100.506 29.2675 100.512 28.6122 100.953C27.957 101.394 27.5497 102.428 27.8271 104.449C28.6536 110.578 35.5012 118.393 35.5012 118.393L42.4078 113.692C42.4078 113.692 37.5849 104.496 32.1541 101.493Z" fill="#FAC700"/>
  <g style="mix-blend-mode:multiply">
    <path d="M32.1541 101.494C31.3676 100.983 30.454 100.7 29.5154 100.677C32.8329 102.54 36.3984 106.259 36.4574 110.214C36.4855 112.33 35.6704 114.371 34.1906 115.89C34.1346 116.091 34.0636 116.287 33.9781 116.478C34.8872 117.653 35.5247 118.388 35.5247 118.388L42.4314 113.687C42.4314 113.687 37.5849 104.496 32.1541 101.494Z" fill="#F2DEC1"/>
  </g>
  <path d="M31.3808 99.8952C31.7184 100.387 31.902 100.966 31.9084 101.562C31.9147 102.157 31.7436 102.741 31.4166 103.239C31.0896 103.737 30.6214 104.128 30.0714 104.361C29.5213 104.595 28.914 104.661 28.3264 104.55C27.7388 104.44 27.1972 104.159 26.7702 103.742C26.3432 103.325 26.05 102.792 25.9277 102.209C25.8054 101.627 25.8594 101.021 26.083 100.469C26.3066 99.9168 26.6896 99.4431 27.1837 99.1078C27.8459 98.6604 28.659 98.492 29.4455 98.6396C30.2319 98.7871 30.9277 99.2386 31.3808 99.8952Z" fill="#FEDA00"/>
  <g style="mix-blend-mode:multiply">
    <path d="M27.3018 99.0254L27.3372 99.0607C27.4653 99.0689 27.591 99.0987 27.7091 99.1488C29.2203 99.7952 31.1506 101.499 29.8578 103.262C29.6011 103.58 29.2807 103.842 28.9168 104.03C28.5529 104.218 28.1537 104.329 27.7445 104.355C28.2219 104.551 28.7419 104.622 29.2547 104.56C29.7674 104.499 30.2558 104.308 30.6729 104.004C31.09 103.701 31.422 103.297 31.637 102.829C31.8521 102.362 31.9429 101.847 31.9009 101.335C31.8589 100.823 31.6855 100.33 31.3972 99.903C31.1089 99.4764 30.7154 99.1307 30.2544 98.8989C29.7935 98.6671 29.2804 98.5571 28.7645 98.5792C28.2485 98.6014 27.7469 98.755 27.3077 99.0254H27.3018Z" fill="#F2DEC1"/>
  </g>
</svg>