<svg xmlns="http://www.w3.org/2000/svg" width="235" height="197" viewBox="0 0 235 197" fill="none">
  <g opacity="0.2">
    <path d="M183.332 59.6812V78.9403L151.548 102.015V59.6812H183.332Z" fill="#4D4D4D"/>
    <path d="M151.863 132.93L183.651 109.856V197H151.863V132.93Z" fill="#4D4D4D"/>
    <path d="M143.599 76.2122V108.016L111.811 131.094V76.2122H143.599Z" fill="#4D4D4D"/>
    <path d="M111.811 162.01L143.599 138.932V197H111.811V162.01Z" fill="#4D4D4D"/>
    <path d="M103.548 92.1062V132.158L71.7598 113.731V92.1062H103.548Z" fill="#4D4D4D"/>
    <path d="M71.7598 142.898L103.548 161.325V197H71.7598V142.898Z" fill="#4D4D4D"/>
    <path d="M63.4962 107.996V111.879L31.7083 143.667V107.996H63.4962Z" fill="#4D4D4D"/>
    <path d="M31.7083 178.501L63.4962 146.709V197H31.7083V178.501Z" fill="#4D4D4D"/>
    <path d="M230.648 59.6094L219.365 98.0201L209.756 84.8382L183.332 104.022L151.548 127.1L143.281 133.098L111.497 156.176L108.155 158.601L103.229 155.742L71.4412 137.311L68.1079 135.379L63.1776 140.31L31.3897 172.098L11.0155 192.472L0 181.456L65.5591 115.901L71.4412 119.31L103.229 137.737L107.204 140.043L111.497 136.929L143.281 113.85L151.548 107.849L183.332 84.7705L200.584 72.2457L191.377 59.6094H230.648Z" fill="#4D4D4D"/>
  </g>
  <path d="M187.315 59.6812V78.9403L155.531 102.015V59.6812H187.315Z" fill="#DBDBDB"/>
  <path d="M155.845 132.93L187.633 109.856V197H155.845V132.93Z" fill="#DBDBDB"/>
  <path d="M147.582 76.2122V108.016L115.794 131.094V76.2122H147.582Z" fill="#DBDBDB"/>
  <path d="M115.794 162.01L147.582 138.932V197H115.794V162.01Z" fill="#DBDBDB"/>
  <path d="M107.53 92.1062V132.158L75.7422 113.731V92.1062H107.53Z" fill="#DBDBDB"/>
  <path d="M75.7422 142.898L107.53 161.325V197H75.7422V142.898Z" fill="#DBDBDB"/>
  <path d="M67.4786 107.996V111.879L35.6907 143.667V107.996H67.4786Z" fill="#DBDBDB"/>
  <path d="M35.6907 178.501L67.4786 146.709V197H35.6907V178.501Z" fill="#DBDBDB"/>
  <path d="M234.63 59.6094L223.348 98.0201L213.738 84.8382L187.315 104.022L155.531 127.1L147.263 133.098L115.479 156.176L112.138 158.601L107.212 155.742L75.4236 137.311L72.0903 135.379L67.16 140.31L35.3721 172.098L14.9979 192.472L3.98242 181.456L69.5415 115.901L75.4236 119.31L107.212 137.737L111.186 140.043L115.479 136.929L147.263 113.85L155.531 107.849L187.315 84.7705L204.567 72.2457L195.359 59.6094H234.63Z" fill="#D94452"/>
  <path opacity="0.3" d="M119.792 75.2802L119.354 74.7864L116.825 74.647L115.264 73.9421L114.683 73.2292H112.138L111.68 74.2926V75.2125L111.819 76.0528L111.847 76.228H113.942V76.0289L114.404 76.228L118.769 76.1404L119.868 75.3798L119.792 75.2802Z" fill="#4D4D4D"/>
  <path opacity="0.3" d="M112.138 73.2293H114.679L114.332 54.3605L100.453 48.3509L100.541 46.9571L102.58 29.5617L101.385 39.8843L101.783 41.3299L102.843 39.944L102.942 29.5617L102.759 29.1157L112.564 23.7991L115.591 10.7964L115.933 9.31894L116.128 8.48661L115.722 8.39899L115.865 7.57462L116.546 5.39224L116.574 4.51212L116.423 4.03821H115.985L115.611 3.72757L115.188 3.78731L114.762 3.52447L114.34 3.62403L114.675 1.2027L114.456 0.904018L114.006 1.01951L113.01 4.43645L111.146 3.37314L110.688 3.77138L111.955 5.16126L113.129 7.48303L113.05 7.84543L112.835 7.80163L109.601 20.8322L101.19 24.289L100.676 22.8951L99.7484 22.6721L99.4657 19.7092L101.644 19.1436L101.608 14.7311V13.17L103.173 12.7717L101.126 9.70524L101.035 7.6025L100.664 6.3321H100.72L100.497 5.46392L100.417 5.50375L99.7922 3.29747L100.987 2.23814L101.592 0L95.5987 0.573474L87.6736 2.6324L85.5151 4.994L85.8218 6.18873L86.8294 6.69052L86.4311 9.51009L87.1917 12.4412L89.2467 16.3798L94.5673 20.868L94.6349 21.4495L94.0177 23.0425L92.1459 27.7457L93.3088 46.969V48.3629L92.7592 49.9559C92.6258 50.3392 92.5743 50.7462 92.6079 51.1506L92.7353 52.7436C92.7538 52.9565 92.7924 53.1672 92.8508 53.3728L93.0539 54.0896L93.1814 55.9773H86.7218V68.542H93.9978L94.2048 71.5965L94.6031 89.1193L94.1411 90.1786V91.1025L94.2805 91.9389L94.3124 92.1181H96.4071V91.915L96.8691 92.1181L101.25 92.0305L102.345 91.2698L102.273 91.1663L101.835 90.6764L99.3024 90.537L97.7413 89.8321L97.1598 89.1193L98.4462 71.2819L98.709 68.5499H106.164V57.3433L110.883 58.4066L112.138 73.2293ZM99.9117 55.9813V55.9296L100.147 55.9813H99.9117Z" fill="#4D4D4D"/>
  <path d="M97.5222 12.1144L102.66 11.521L104.026 25.7065L99.171 26.3039L97.5222 12.1144Z" fill="#F1DBCB"/>
  <path opacity="0.3" d="M98.6453 18.5623L103.587 21.1628L103.448 19.7092L98.6453 18.5623Z" fill="#4D4D4D"/>
  <path d="M103.755 3.29736L105.005 7.59045L105.097 9.69319L107.144 12.7597L105.579 13.1659L105.626 19.1435L103.325 19.7409L98.6451 18.5621L96.8132 16.0731L94.6707 15.862L92.4126 6.23243L97.7451 4.86247L103.755 3.29736Z" fill="#F5E0CD"/>
  <path d="M98.5378 20.8602L93.2172 16.372L91.1622 12.4333L90.4016 9.50224L90.7959 6.68267L99.6767 4.34497L97.8209 7.95307L99.5971 15.002L97.8647 14.4843L97.0165 11.5572L95.3996 11.2983L94.5195 12.1307L94.8022 13.8949L95.9133 14.9901L97.4505 15.2728L98.0519 15.1175L98.6453 18.5623L98.5378 20.8602Z" fill="black"/>
  <path d="M89.7883 6.18077L89.4817 4.994L91.6402 2.63639L99.5692 0.573474L105.559 0L104.954 2.23814L103.755 3.29747L90.7959 6.68255L89.7883 6.18077Z" fill="black"/>
  <path d="M97.1599 12.0431L95.6147 11.8081L95.1567 12.5249L95.4833 13.7794L96.8811 14.7392L97.8648 14.4843L97.1599 12.0431Z" fill="#B08874"/>
  <path d="M104.691 6.30031L101.576 7.37955L101.465 6.94546L104.468 5.43213L104.691 6.30031Z" fill="black"/>
  <path d="M102.93 9.78502C102.93 9.78502 102.588 8.12832 103.675 7.92123C103.675 7.92123 104.647 7.65042 104.965 9.25933C104.745 9.57223 104.42 9.79557 104.049 9.88856C103.675 9.98123 103.281 9.94475 102.93 9.78502Z" fill="#1A1A1A"/>
  <path d="M102.938 9.84458C102.938 9.84458 102.64 8.18788 103.695 7.98477C103.695 7.98477 104.659 7.706 104.977 9.31491C104.756 9.62929 104.43 9.85502 104.058 9.9521C103.683 10.0423 103.289 10.0044 102.938 9.84458Z" fill="white"/>
  <path d="M103.886 9.38267C103.922 9.45342 103.978 9.51251 104.046 9.55312C104.114 9.59373 104.193 9.61421 104.272 9.61221C104.352 9.61022 104.429 9.58582 104.495 9.54183C104.562 9.49783 104.614 9.43604 104.647 9.36355C104.679 9.29106 104.691 9.21082 104.68 9.13208C104.669 9.05334 104.636 8.97929 104.585 8.91845C104.534 8.85762 104.466 8.81246 104.391 8.7882C104.315 8.76394 104.234 8.76155 104.157 8.78131C104.042 8.82675 103.95 8.91492 103.9 9.02715C103.849 9.13939 103.844 9.26689 103.886 9.38267Z" fill="#A67C52"/>
  <path d="M103.95 9.36666C103.967 9.46898 104.023 9.56074 104.106 9.62247C104.189 9.68419 104.293 9.711 104.396 9.69721C104.487 9.69345 104.575 9.66144 104.648 9.60561C104.72 9.54977 104.773 9.47286 104.8 9.38545C104.827 9.29805 104.826 9.20446 104.798 9.11759C104.769 9.03071 104.715 8.95482 104.641 8.90037C104.568 8.84593 104.479 8.8156 104.388 8.81358C104.296 8.81156 104.206 8.83795 104.131 8.88909C104.055 8.94024 103.997 9.01364 103.964 9.09917C103.932 9.1847 103.927 9.27816 103.95 9.36666Z" fill="black"/>
  <path d="M104.304 9.11176C104.307 9.13015 104.313 9.14786 104.322 9.16386C104.331 9.17987 104.344 9.19384 104.359 9.20497C104.374 9.21609 104.39 9.22415 104.408 9.22866C104.426 9.23317 104.445 9.23405 104.464 9.23124C104.481 9.22501 104.497 9.21543 104.51 9.20303C104.524 9.19064 104.535 9.17569 104.543 9.15903C104.55 9.14238 104.555 9.12435 104.556 9.10598C104.556 9.08762 104.553 9.06928 104.547 9.05203C104.541 9.01457 104.521 8.98096 104.49 8.95857C104.46 8.93618 104.421 8.92683 104.384 8.93255C104.35 8.94591 104.322 8.97222 104.307 9.00578C104.292 9.03933 104.291 9.07742 104.304 9.11176Z" fill="white"/>
  <path d="M105.599 16.0375L104.499 16.3243C104.037 16.3132 103.578 16.2354 103.137 16.0933L102.811 15.4481L104.177 15.0937L105.591 14.7273L105.599 16.0375Z" fill="white"/>
  <path opacity="0.3" d="M99.7603 4.32886L90.8754 6.66655L90.8674 6.73027L99.6408 4.56382L99.7603 4.32886Z" fill="#4D4D4D"/>
  <path d="M106.315 91.258L105.22 92.0187L100.851 92.1063L100.389 91.9032L100.393 92.1063H98.2987L98.2668 91.9311L98.1274 91.0908V90.1668L98.5894 89.1035H101.13L101.712 89.8204L103.273 90.5253L105.806 90.6646L106.244 91.1545L106.315 91.258Z" fill="black"/>
  <path d="M100.393 92.1059H98.2987L98.2668 91.9307L100.389 91.9028L100.393 92.1059Z" fill="#CCCCCC"/>
  <path d="M106.316 91.2578L105.22 92.0185L100.852 92.1061L100.39 91.903L105.188 91.9309L106.244 91.1543L106.316 91.2578Z" fill="#CCCCCC"/>
  <path d="M123.85 75.3798L122.751 76.1404L118.386 76.228L117.924 76.0289V76.228H115.83L115.802 76.0528L115.662 75.2125V74.2926L116.12 73.2292H118.665L119.247 73.9421L120.808 74.647L123.337 74.7864L123.775 75.2802L123.85 75.3798Z" fill="black"/>
  <path d="M117.924 76.2282H115.83L115.802 76.0529L117.924 76.0291V76.2282Z" fill="#CCCCCC"/>
  <path d="M123.85 75.3796L122.751 76.1402L118.386 76.2279L117.924 76.0287L122.723 76.0526L123.775 75.28L123.85 75.3796Z" fill="#CCCCCC"/>
  <path d="M97.2714 46.9571V48.351L96.7219 49.9439C96.5885 50.3272 96.5369 50.7342 96.5705 51.1387L96.698 52.7316C96.7164 52.9446 96.7551 53.1553 96.8134 53.3609L97.0166 54.0777H104.085L104.531 46.9412L97.2714 46.9571Z" fill="#333333"/>
  <path d="M118.665 73.2294H116.124L114.858 58.3988L103.902 55.9297L104.412 48.7374L104.44 48.3511L118.319 54.3606L118.665 73.2294Z" fill="#333333"/>
  <path d="M97.0125 54.0894L98.1873 71.6002L98.5895 89.1031H101.13L102.429 71.2776L104.081 54.0894H97.0125Z" fill="#333333"/>
  <path d="M104.44 48.3549H97.2673L97.2713 46.957H104.527L104.44 48.3549Z" fill="#1A1A1A"/>
  <path d="M97.8966 46.9609H97.4585V48.5221H97.8966V46.9609Z" fill="#333333"/>
  <path d="M104.396 46.9609H103.958V48.5221H104.396V46.9609Z" fill="#333333"/>
  <path d="M100.764 46.9609H100.326V48.5221H100.764V46.9609Z" fill="#333333"/>
  <path d="M116.746 73.2293H116.124L114.858 58.3987L103.902 55.9296L104.396 48.5222L104.412 48.7373L104.778 54.7388L115.272 57.8133L116.746 73.2293Z" fill="#1A1A1A"/>
  <path d="M120.569 4.51208L120.417 4.03817L119.979 4.04215L119.605 3.73152L119.183 3.79126L118.757 3.52841L118.335 3.62797L118.669 1.20664L118.45 0.907959L118 1.02345L117.004 4.4404L115.141 3.37708L114.683 3.77134L115.949 5.16122L117.124 7.48299L116.793 9.02022L119.513 9.57776L119.677 8.63392L119.856 7.57458L120.541 5.3922L120.569 4.51208Z" fill="#F5E0CD"/>
  <path d="M116.574 23.7994L120.138 8.48285L116.833 7.80981L113.599 20.8404L102.428 25.4123L100.385 32.5807L116.574 23.7994Z" fill="white"/>
  <path opacity="0.3" d="M116.618 8.67383L119.943 9.31899L119.601 10.7965L119.247 10.7248L119.159 10.0757L119.051 10.685L116.264 10.1354L116.618 8.67383Z" fill="#4D4D4D"/>
  <path d="M120.139 8.48684L119.621 10.7051L119.322 10.6453L119.195 9.84883L119.071 10.5975L116.276 10.0559L116.833 7.80981L120.139 8.48684Z" fill="#F2F2F2"/>
  <g style="mix-blend-mode:multiply" opacity="0.1">
    <path d="M102.428 25.4122L100.385 32.5766L102.524 26.0055L114.101 21.0593L117.223 7.88141L116.829 7.80176L113.595 20.8323L102.428 25.4122Z" fill="#4D4D4D"/>
  </g>
  <path d="M97.9802 23.0305H104.081L106.574 29.5617L104.527 46.9571H97.2713L96.1084 27.7338L97.9802 23.0305Z" fill="white"/>
  <path d="M97.9802 23.0305L105.646 25.5832L104.659 22.8951L98.5975 21.4375L97.9802 23.0305Z" fill="#F2F2F2"/>
  <path d="M104.965 25.3564L105.459 25.5197V25.9578H105.196L104.965 25.3564Z" fill="#C1272D"/>
  <path d="M105.459 25.9578L106.953 29.5619L106.853 39.9441L105.79 41.33L105.387 39.8844L106.574 29.5619L105.196 25.9578H105.459Z" fill="#FF0000"/>
  <path opacity="0.3" d="M97.9802 23.0305L105.459 25.866V25.5195L97.9802 23.0305Z" fill="#4D4D4D"/>
  <path opacity="0.3" d="M105.196 25.9578H105.459L105.471 25.9936H105.212L105.196 25.9578Z" fill="#4D4D4D"/>
  <path d="M103.599 56.9171H97.5022V53.6436H103.599V56.9171ZM98.2788 56.1485H102.823V54.4281H98.2788V56.1485Z" fill="#CCCCCC"/>
  <path d="M110.135 55.9814H90.7043V68.5461H110.135V55.9814Z" fill="#1A1A1A"/>
  <path d="M110.135 55.9814H90.7043V61.5011H110.135V55.9814Z" fill="black"/>
  <path d="M110.135 55.9814H90.7043V61.3498H110.135V55.9814Z" fill="#736357"/>
  <path d="M94.2965 60.127H92.7473V61.3496H94.2965V60.127Z" fill="#CCCCCC"/>
  <path d="M94.0614 60.7363H92.9822V62.2616H94.0614V60.7363Z" fill="#F2F2F2"/>
  <path d="M94.1371 61.6484H92.9065V62.0586H94.1371V61.6484Z" fill="#CCCCCC"/>
  <path d="M94.2965 60.1348H92.7473V61.0268H94.2965V60.1348Z" fill="#999999"/>
  <path d="M108.096 60.127H106.546V61.3496H108.096V60.127Z" fill="#CCCCCC"/>
  <path d="M107.861 60.7363H106.781V62.2616H107.861V60.7363Z" fill="#F2F2F2"/>
  <path d="M107.936 61.6484H106.706V62.0586H107.936V61.6484Z" fill="#CCCCCC"/>
  <path d="M108.096 60.1348H106.546V61.0268H108.096V60.1348Z" fill="#999999"/>
  <path d="M99.1749 51.6365V52.0148L98.928 53.5799L99.0952 55.2605L99.378 55.5472L99.7922 55.4158L100.326 55.6508L100.764 55.4318L101.313 55.5871L101.568 55.2047L102.094 55.2286L102.309 54.7069L102.202 53.6436H102.807V53.1697L101.871 52.1582L101.883 51.6882L99.1749 51.6365Z" fill="#F5E0CD"/>
  <path d="M101.963 51.7163L99.175 51.6366L98.1953 27.73L100.453 25.9578L102.648 27.7339L101.963 51.7163Z" fill="white"/>
  <path opacity="0.3" d="M99.1271 50.5252H101.994L102.03 49.3862L101.751 49.3942L101.576 50.2066L101.536 49.4181L99.0833 49.5535L99.1271 50.5252Z" fill="#4D4D4D"/>
  <path d="M101.963 51.716L102.022 49.6013L101.74 49.6133L101.576 50.2066L101.548 49.6292L99.0952 49.7845L99.1709 51.6364L101.963 51.716Z" fill="#F2F2F2"/>
  <path opacity="0.3" d="M99.5454 51.6483L99.175 51.6364L98.1953 27.7297L99.5454 51.6483Z" fill="#4D4D4D"/>
</svg>